<?xml version="1.0" encoding="UTF-8" standalone="no"?>
<!-- Created with Inkscape (http://www.inkscape.org/) -->

<svg
   width="842.4328mm"
   height="704.85004mm"
   viewBox="0 0 842.4328 704.85004"
   version="1.1"
   id="svg1"
   xml:space="preserve"
   xmlns="http://www.w3.org/2000/svg"
   xmlns:svg="http://www.w3.org/2000/svg"><defs
     id="defs1" /><g
     id="layer1"
     transform="translate(-4700.0582,-1125.0085)"><rect
       style="opacity:1;fill:#1be429;fill-opacity:0;stroke:none;stroke-width:2.77879;stroke-dasharray:none;stroke-opacity:1"
       id="rect14"
       width="842.43323"
       height="704.84998"
       x="4700.0581"
       y="1125.0083" /><path
       id="path8-9"
       style="fill:#1c4158;fill-opacity:1;stroke:none;stroke-width:20.022;stroke-dasharray:none;stroke-opacity:1"
       d="m 5109.0257,1256.8269 -5.0912,14.0007 -8.2734,0.3819 -11.0733,-12.2189 -10.6913,4.0726 0.6367,17.5648 -2.6081,2.7719 -13.4101,-4.1398 -8.6397,11.3399 9.8996,10.62 -2.4881,8.2367 -14.8281,3.882 1.1457,15.5918 14.9106,0.7746 2.9719,8.8351 -8.7824,12.4096 12.1553,9.8004 12.219,-6.6822 6.6817,4.8369 -1.7817,14.1914 14.6373,1.973 4.9636,-12.4101 9.2914,-0.3178 8.8459,12.6002 11.0097,-3.3729 0.3183,-17.1188 5.2819,-4.5186 14.7009,3.6912 5.5873,-12.4421 -9.2698,-8.46 2.0278,-9.7084 14.0007,-3.3094 v -13.1098 l -15.2735,-2.5456 -3.3093,-8.9095 7.8915,-11.9641 -11.0732,-10.4371 -12.8551,5.9821 -5.3459,-3.0546 1.5276,-15.1464 z m -6.1097,22.4679 a 37.619999,36.653164 0 0 1 37.6204,36.653 37.619999,36.653164 0 0 1 -37.6204,36.6531 37.619999,36.653164 0 0 1 -37.6199,-36.6531 37.619999,36.653164 0 0 1 37.6199,-36.653 z" /><path
       style="fill:#0e304f;fill-opacity:1;stroke-width:0.264583"
       d="m 5153.3452,1247.46 4.9003,-36.5928 -140.4695,-0.1061 c 0,0 -15.48,3.06 -19.2601,18 -3.7799,14.94 -33.6711,188.4257 -33.6711,188.4257 0,0 -2.8002,20.0465 16.419,20.1737 19.2191,0.1273 140.4622,-0.5194 140.4622,-0.5194 l 6.3,-38.52 -121.23,-1.44 25.2898,-149.31 z"
       id="path4-47" /><path
       style="fill:#184975;fill-opacity:1;stroke-width:0.264583"
       d="m 5168.9759,1210.5361 -5.22,36.855 h 111.8701 l -25.875,149.805 -110.4065,0.7715 -14.9185,79.1935 h 38.4299 l 7.02,-40.635 93.06,1.215 c 0,0 18.3601,-3.06 23.58,-23.22 5.22,-20.16 30.0013,-182.5256 30.0013,-182.5256 0,0 3.2455,-21.5738 -19.6646,-21.8284 -22.9103,-0.2545 -127.8767,0.369 -127.8767,0.369 z"
       id="path5-8" /><ellipse
       style="fill:#184975;fill-opacity:1;stroke-width:0.264583"
       id="path6-3"
       cx="5137.6558"
       cy="1484.5411"
       rx="80.279999"
       ry="9" /><ellipse
       style="fill:none;fill-opacity:1;stroke:#1c4158;stroke-width:2.922;stroke-dasharray:none;stroke-opacity:1"
       id="path7-5"
       cx="5102.916"
       cy="1315.9479"
       rx="37.619999"
       ry="36.653164" /><path
       id="path8-2-12"
       style="fill:#2a4d62;fill-opacity:1;stroke:none;stroke-width:12.3577;stroke-dasharray:none;stroke-opacity:1"
       d="m 5196.6962,1317.5721 -3.1423,8.6413 -5.1062,0.2357 -6.8345,-7.5416 -6.5987,2.5137 0.393,10.8411 -1.6099,1.7108 -8.2768,-2.5551 -5.3325,6.9991 6.1103,6.5547 -1.5358,5.0838 -9.152,2.3959 0.7071,9.6234 9.2029,0.4781 1.8344,5.4531 -5.4205,7.6593 7.5022,6.0489 7.5416,-4.1244 4.1242,2.9854 -1.0999,8.759 9.0343,1.2178 3.0636,-7.6596 5.7347,-0.1962 5.4598,7.777 6.7952,-2.0818 0.1965,-10.5659 3.2599,-2.7889 9.0736,2.2783 3.4485,-7.6794 -5.7213,-5.2215 1.2515,-5.9921 8.6413,-2.0426 v -8.0914 l -9.4269,-1.5712 -2.0425,-5.499 4.8707,-7.3844 -6.8345,-6.4418 -7.9342,3.6922 -3.2995,-1.8853 0.9428,-9.3485 z m -3.7709,13.8673 a 23.219312,22.622575 0 0 1 23.2196,22.6225 23.219312,22.622575 0 0 1 -23.2196,22.6225 23.219312,22.622575 0 0 1 -23.2192,-22.6225 23.219312,22.622575 0 0 1 23.2192,-22.6225 z" /><ellipse
       style="fill:none;fill-opacity:1;stroke:#2a4d62;stroke-width:1.80348;stroke-dasharray:none;stroke-opacity:1"
       id="path7-7-01"
       cx="5192.9253"
       cy="1354.0619"
       rx="23.219311"
       ry="22.622574" /><path
       style="fill:#243c58;fill-opacity:1;stroke:none;stroke-width:2.92201;stroke-dasharray:none;stroke-opacity:1"
       d="m 5082.1325,1452.3159 c 0,0 -35.1292,1.4 -58.4211,19.8555 -23.2921,18.4555 -28.8924,25.4559 -27.1105,43.4022 1.7819,17.9464 18.4555,30.0379 38.0564,32.4562 19.6011,2.4183 40.093,-2.9274 40.093,-2.9274 0,0 -2.291,23.1648 4.8366,28.6378 7.1277,5.473 16.8009,10.0551 33.2199,6.2367 16.419,-3.8184 24.6922,-18.0736 26.0922,-22.4011 1.4001,-4.3275 -1.6931,-11.0247 -6.9131,-14.7147 -5.2199,-3.69 -14.67,-8.28 -36.27,-8.55 -21.5999,-0.27 -54.4499,-1.17 -62.37,-3.78 -7.9199,-2.61 -12.4199,-3.96 -16.9199,-8.91 -4.5001,-4.95 -9.9,-14.22 -2.88,-22.77 7.0198,-8.55 32.2257,-34.29 47.9278,-35.1 15.7021,-0.81 20.6587,-11.4352 20.6587,-11.4352 z"
       id="path9-6" /><path
       style="fill:#243c58;fill-opacity:1;stroke:none;stroke-width:2.92201;stroke-dasharray:none;stroke-opacity:1"
       d="m 5078.8047,1533.9951 c 0,0 5.1097,-30.0039 63.0218,-29.2402 57.912,0.7637 85.9135,1.1455 88.7136,-1.5274 2.8,-2.6728 0.8909,5.8549 0.8909,5.8549 0,0 -8.9095,2.9274 -15.6553,3.5638 -6.7458,0.6364 -33.0926,4.0729 -42.0021,2.6729 -8.9096,-1.4001 -26.9832,-0.7637 -37.0383,-0.1273 -10.0551,0.6364 -34.8745,7.8913 -39.9657,11.9642 -5.0911,4.073 -4.4488,7.1086 -4.4488,7.1086 z"
       id="path10-4" /><path
       id="path11-8-06"
       style="fill:#243c58;fill-opacity:1;stroke:none;stroke-width:2.92201;stroke-dasharray:none;stroke-opacity:1"
       d="m 5273.8131,1469.3168 c -37.1886,1.0353 -43.0356,30.0746 -43.0356,30.0746 0,0 -1.9689,6.7247 -0.2542,9.5462 1.7147,2.8215 13.7461,12.6003 17.819,15.5277 4.073,2.9275 23.292,5.2186 39.0746,3.6913 15.7826,-1.5274 33.4744,-15.7825 33.4744,-15.7825 0,0 24.183,-32.3288 -29.147,-41.6202 -6.6662,-1.1614 -12.6185,-1.5851 -17.9312,-1.4371 z m -9.2981,12.0974 c 2.0474,0.056 2.8577,0.3039 2.8577,0.3039 l 0.54,9.5399 -24.4802,2.7901 c 0,0 0.8999,-10.26 10.7999,-11.79 4.95,-0.765 8.2351,-0.9001 10.2826,-0.8439 z m 4.0301,13.7645 0.54,12.6902 c 0,0 -8.1898,1.53 -18.0897,0 -9.9,-1.53 -6.4802,-10.3503 -6.4802,-10.3503 z m 39.6142,5.316 c 0.2768,-5e-4 0.5474,0.01 0.8118,0.033 8.46,0.72 9.54,0.7204 9.54,0.7204 0,0 -2.8799,9.3596 -10.2599,13.3196 -7.3801,3.96 -26.9997,6.4804 -35.6396,7.3804 -8.64,0.9 -24.12,-5.4002 -24.12,-5.4002 0,0 11.16,1.4398 24.12,-1.9802 12.5551,-3.3132 26.9677,-14.0588 35.5477,-14.0726 z" /><text
       xml:space="preserve"
       style="font-size:10.1548px;text-align:start;writing-mode:lr-tb;direction:ltr;text-anchor:start;fill:#0e304f;fill-opacity:1;stroke:#000000;stroke-width:0.846236;stroke-opacity:1"
       x="4800.9409"
       y="1727.0466"
       id="text6-3-0"><tspan
         id="tspan6-3-8"
         style="font-style:normal;font-variant:normal;font-weight:normal;font-stretch:normal;font-size:47.625px;font-family:Sans;-inkscape-font-specification:'Sans, Normal';font-variant-ligatures:normal;font-variant-caps:normal;font-variant-numeric:normal;font-variant-east-asian:normal;fill:#0e304f;fill-opacity:1;stroke:none;stroke-width:0.846236"
         x="4800.9409"
         y="1727.0466">A COMPLETE IT SOLUTION</tspan></text><rect
       style="fill:#000000;fill-opacity:1;stroke:none;stroke-width:0.786276;stroke-opacity:1"
       id="rect6-4-7"
       width="653.07959"
       height="4.6056595"
       x="4791.7944"
       y="1678.35" /><text
       xml:space="preserve"
       style="font-style:normal;font-variant:normal;font-weight:normal;font-stretch:normal;font-size:54.159px;font-family:sans-serif;-inkscape-font-specification:'sans-serif, Normal';font-variant-ligatures:normal;font-variant-caps:normal;font-variant-numeric:normal;font-variant-east-asian:normal;text-align:start;writing-mode:lr-tb;direction:ltr;text-anchor:start;fill:#0e304f;fill-opacity:1;stroke:none;stroke-width:0.846236;stroke-opacity:1"
       x="4806.9946"
       y="1665.2567"
       id="text8-1-78"><tspan
         id="tspan8-3-3"
         style="font-style:normal;font-variant:normal;font-weight:bold;font-stretch:normal;font-size:90.2652px;font-family:Sans;-inkscape-font-specification:'Sans, Bold';font-variant-ligatures:normal;font-variant-caps:normal;font-variant-numeric:normal;font-variant-east-asian:normal;fill:#0e304f;fill-opacity:1;stroke-width:0.846236"
         x="4806.9946"
         y="1665.2567">AMB</tspan></text><text
       xml:space="preserve"
       style="font-style:normal;font-variant:normal;font-weight:normal;font-stretch:normal;font-size:54.159px;font-family:sans-serif;-inkscape-font-specification:'sans-serif, Normal';font-variant-ligatures:normal;font-variant-caps:normal;font-variant-numeric:normal;font-variant-east-asian:normal;text-align:start;writing-mode:lr-tb;direction:ltr;text-anchor:start;fill:#164874;fill-opacity:1;stroke:none;stroke-width:0.846236;stroke-opacity:1"
       x="5044.0493"
       y="1664.005"
       id="text8-9-8-8"><tspan
         id="tspan8-5-7-3"
         style="font-style:normal;font-variant:normal;font-weight:bold;font-stretch:normal;font-size:90.2652px;font-family:Archivo;-inkscape-font-specification:'Archivo, Bold';font-variant-ligatures:normal;font-variant-caps:normal;font-variant-numeric:normal;font-variant-east-asian:normal;fill:#000000;fill-opacity:1;stroke-width:0.846236"
         x="5044.0493"
         y="1664.005">INFOSYS</tspan></text></g></svg>
